<svg width="150" height="39" viewBox="0 0 150 39" fill="none" xmlns="http://www.w3.org/2000/svg">
<path d="M25.4549 35.056C26.2229 35.056 27.2469 34.1813 28.5269 32.432C29.8069 30.64 31.0656 28.3573 32.3029 25.584C33.5829 22.768 34.3509 21.36 34.6069 21.36C34.9056 21.36 35.0549 21.5307 35.0549 21.872C35.0549 23.0667 34.4362 24.9653 33.1989 27.568C29.8282 34.736 26.9696 38.32 24.6229 38.32C22.6602 38.32 21.2522 37.9787 20.3989 37.296C20.0149 36.912 19.8229 32.8587 19.8229 25.136L9.3269 25.904C8.51623 28.1227 7.7909 30.3413 7.1509 32.56C6.5109 34.7787 6.08423 36.144 5.8709 36.656C5.40157 37.7653 4.2709 38.32 2.4789 38.32C1.28423 38.32 0.686901 37.808 0.686901 36.784C0.686901 35.76 1.49757 34.2667 3.1189 32.304C3.41757 31.92 4.3989 29.8507 6.0629 26.096C5.46557 26.1387 4.88957 26.16 4.3349 26.16C2.84157 26.16 2.0949 25.52 2.0949 24.24C2.0949 23.088 2.69223 22.512 3.8869 22.512C3.97223 22.512 5.18823 22.6187 7.5349 22.832C8.1749 21.3387 8.85757 19.8667 9.5829 18.416C15.1722 6.72533 19.0122 0.879997 21.1029 0.879997C22.6816 0.879997 23.7696 8.19733 24.3669 22.832H24.9429C25.2416 22.832 25.3909 23.0453 25.3909 23.472C25.3909 23.8987 25.0709 24.2613 24.4309 24.56C24.6869 31.5573 25.0282 35.056 25.4549 35.056ZM10.2869 23.152C15.2789 23.152 18.4576 23.1307 19.8229 23.088C19.7802 22.4053 19.7376 21.2107 19.6949 19.504C19.6522 17.7973 19.6096 16.3253 19.5669 15.088C19.5242 13.808 19.4816 12.4853 19.4389 11.12C19.2682 8.176 19.0122 6.704 18.6709 6.704C18.2016 6.704 17.2416 8.09067 15.7909 10.864C14.3402 13.6373 13.2096 15.984 12.3989 17.904C11.2896 20.6773 10.5856 22.4267 10.2869 23.152ZM34.0934 32.432L34.4774 25.264C34.4774 20.6987 34.6907 18.2027 35.1174 17.776C35.5441 17.3493 36.2907 16.7307 37.3574 15.92C38.4667 15.0667 39.2561 14.64 39.7254 14.64C40.2374 14.64 40.5574 14.7253 40.6854 14.896C40.8134 15.0667 40.8774 15.408 40.8774 15.92C40.8774 17.7547 40.4721 19.6107 39.6614 21.488C39.0214 25.4133 38.7014 28.6347 38.7014 31.152C38.7014 33.6693 39.1067 34.928 39.9174 34.928C40.8987 34.928 42.0507 34.0747 43.3734 32.368C44.6961 30.6613 46.0187 28.1227 47.3414 24.752C47.7254 20.4853 48.0241 18.1813 48.2374 17.84C48.4934 17.4987 49.0907 16.88 50.0294 15.984C50.9681 15.088 51.7361 14.64 52.3334 14.64C52.9734 14.64 53.2934 15.4507 53.2934 17.072C53.2934 17.4987 53.1654 18.3307 52.9094 19.568C52.6961 20.8053 52.4401 21.7013 52.1414 22.256C51.6721 23.4507 51.4374 27.1413 51.4374 33.328C51.4374 34.48 51.5654 35.056 51.8214 35.056C52.5467 35.0133 53.5494 34.1173 54.8294 32.368C56.1094 30.576 57.3681 28.2933 58.6054 25.52C59.8854 22.7467 60.6534 21.36 60.9094 21.36C61.2081 21.36 61.3574 21.5307 61.3574 21.872C61.3574 23.0667 60.7387 24.9653 59.5014 27.568C56.1307 34.736 53.2934 38.32 50.9894 38.32C49.3254 38.32 48.0667 37.9787 47.2134 37.296C46.9147 36.9973 46.7654 36.08 46.7654 34.544C46.7654 33.008 46.8294 31.3013 46.9574 29.424C45.5921 32.3253 44.2267 34.544 42.8614 36.08C41.4961 37.5733 39.9601 38.32 38.2534 38.32C36.5894 38.32 35.4801 37.872 34.9254 36.976C34.3707 36.08 34.0934 34.5653 34.0934 32.432ZM64.9564 21.296L68.4764 20.912C68.8177 20.912 69.1164 21.104 69.3724 21.488C69.6284 21.872 69.7564 22.2773 69.7564 22.704C69.7564 23.1307 69.6071 24.5813 69.3084 27.056C69.0524 29.5307 68.9244 31.4933 68.9244 32.944C68.9244 34.352 69.0524 35.056 69.3084 35.056C70.0337 35.0133 71.0364 34.1173 72.3164 32.368C73.5964 30.576 74.8551 28.2933 76.0924 25.52C77.3724 22.7467 78.1404 21.36 78.3964 21.36C78.6951 21.36 78.8444 21.5307 78.8444 21.872C78.8444 23.0667 78.2257 24.9653 76.9884 27.568C73.6177 34.736 70.7804 38.32 68.4764 38.32C66.8124 38.32 65.5537 37.9787 64.7004 37.296C64.4017 36.9973 64.2524 35.1413 64.2524 31.728C64.2524 28.3147 64.6151 25.392 65.3404 22.96C62.8657 22.96 61.1377 22.1707 60.1564 20.592C59.6444 19.7813 59.3884 18.864 59.3884 17.84C59.3884 16.816 59.6017 15.92 60.0284 15.152C60.4551 14.384 61.0524 14 61.8204 14C62.6311 14 63.3564 14.4267 63.9964 15.28C64.6791 16.0907 65.0204 17.008 65.0204 18.032C65.0204 19.056 64.7217 20.08 64.1244 21.104C64.2951 21.232 64.5724 21.296 64.9564 21.296ZM97.6529 24.112C99.3596 23.5573 100.533 23.088 101.173 22.704C101.856 22.2773 102.368 21.9573 102.709 21.744L103.477 21.296C103.69 21.168 103.861 21.104 103.989 21.104C104.33 21.104 104.501 21.296 104.501 21.68C104.501 22.064 103.84 22.7467 102.517 23.728C101.194 24.6667 99.5516 25.52 97.5889 26.288C97.2902 29.872 96.1596 32.7733 94.1969 34.992C92.2342 37.2107 89.4396 38.32 85.8129 38.32C83.1676 38.32 81.1409 37.2747 79.7329 35.184C78.3249 33.0507 77.6209 30.576 77.6209 27.76C77.6209 24.9013 78.4529 22.2133 80.1169 19.696C81.8236 17.1787 83.9996 15.92 86.6449 15.92C87.8396 15.0667 89.2476 14.64 90.8689 14.64C92.5329 14.64 94.0689 15.5147 95.4769 17.264C96.8849 19.0133 97.6102 21.296 97.6529 24.112ZM93.4929 27.376L91.1889 27.504C89.2262 27.504 87.5622 26.928 86.1969 25.776C84.8316 24.5813 84.1489 23.28 84.1489 21.872C84.1489 20.464 84.3836 19.248 84.8529 18.224C83.0182 19.6747 82.1009 22.5333 82.1009 26.8C82.1009 28.848 82.5276 30.8107 83.3809 32.688C84.2342 34.5227 85.5782 35.44 87.4129 35.44C89.2476 35.44 90.6769 34.672 91.7009 33.136C92.7249 31.5573 93.3222 29.6373 93.4929 27.376ZM89.5249 16.752C88.8422 16.752 88.3089 17.072 87.9249 17.712C87.5409 18.3093 87.3489 18.9707 87.3489 19.696C87.3489 21.2747 87.8822 22.5547 88.9489 23.536C90.0582 24.5173 91.3382 25.008 92.7889 25.008H93.5569C93.4716 22.9173 93.1089 21.0187 92.4689 19.312C91.8716 17.6053 90.8902 16.752 89.5249 16.752ZM108.421 21.296L111.941 20.912C112.283 20.912 112.581 21.104 112.837 21.488C113.093 21.872 113.221 22.2773 113.221 22.704C113.221 23.1307 113.072 24.5813 112.773 27.056C112.517 29.5307 112.389 31.4933 112.389 32.944C112.389 34.352 112.517 35.056 112.773 35.056C113.499 35.0133 114.501 34.1173 115.781 32.368C117.061 30.576 118.32 28.2933 119.557 25.52C120.837 22.7467 121.605 21.36 121.861 21.36C122.16 21.36 122.309 21.5307 122.309 21.872C122.309 23.0667 121.691 24.9653 120.453 27.568C117.083 34.736 114.245 38.32 111.941 38.32C110.277 38.32 109.019 37.9787 108.165 37.296C107.867 36.9973 107.717 35.1413 107.717 31.728C107.717 28.3147 108.08 25.392 108.805 22.96C106.331 22.96 104.603 22.1707 103.621 20.592C103.109 19.7813 102.853 18.864 102.853 17.84C102.853 16.816 103.067 15.92 103.493 15.152C103.92 14.384 104.517 14 105.285 14C106.096 14 106.821 14.4267 107.461 15.28C108.144 16.0907 108.485 17.008 108.485 18.032C108.485 19.056 108.187 20.08 107.589 21.104C107.76 21.232 108.037 21.296 108.421 21.296ZM139.07 38.32C137.406 38.32 136.147 37.9787 135.294 37.296C134.995 36.9973 134.846 36.2507 134.846 35.056C134.846 33.8187 134.889 32.176 134.974 30.128C133.865 32.9013 132.755 34.9707 131.646 36.336C130.579 37.6587 129.193 38.32 127.486 38.32C125.779 38.32 124.286 37.5307 123.006 35.952C121.726 34.3307 121.086 31.8133 121.086 28.4C121.086 24.944 122.046 21.8933 123.966 19.248C125.929 16.6027 128.489 15.28 131.646 15.28C133.011 15.28 134.547 16.176 136.254 17.968C136.595 17.4987 137.193 16.944 138.046 16.304C138.942 15.6213 139.689 15.28 140.286 15.28C140.926 15.28 141.246 16.0907 141.246 17.712C141.246 18.1387 141.118 18.9707 140.862 20.208C140.649 21.4453 140.393 22.3413 140.094 22.896C139.71 23.8773 139.518 27.3547 139.518 33.328C139.518 34.48 139.646 35.056 139.902 35.056C140.627 35.0133 141.63 34.1173 142.91 32.368C144.19 30.576 145.449 28.2933 146.686 25.52C147.966 22.7467 148.734 21.36 148.99 21.36C149.289 21.36 149.438 21.5307 149.438 21.872C149.438 23.0667 148.819 24.9653 147.582 27.568C144.211 34.736 141.374 38.32 139.07 38.32ZM131.262 17.84C130.067 17.84 128.787 18.736 127.422 20.528C126.099 22.2773 125.438 24.3467 125.438 26.736C125.438 29.1253 125.779 31.088 126.462 32.624C127.187 34.16 128.126 34.928 129.278 34.928C130.686 34.928 132.755 31.408 135.486 24.368C135.529 24.0267 135.571 23.4507 135.614 22.64C135.699 21.7867 135.763 21.1467 135.806 20.72C135.422 20.0373 134.739 19.3973 133.758 18.8C132.819 18.16 131.987 17.84 131.262 17.84Z" fill="black"/>
</svg>
