<svg width="113" height="29" viewBox="0 0 113 29" fill="none" xmlns="http://www.w3.org/2000/svg">
<path d="M19.3033 25.792C19.8793 25.792 20.6473 25.136 21.6073 23.824C22.5673 22.48 23.5113 20.768 24.4393 18.688C25.3993 16.576 25.9753 15.52 26.1673 15.52C26.3913 15.52 26.5033 15.648 26.5033 15.904C26.5033 16.8 26.0393 18.224 25.1113 20.176C22.5833 25.552 20.4393 28.24 18.6793 28.24C17.2073 28.24 16.1513 27.984 15.5113 27.472C15.2233 27.184 15.0793 24.144 15.0793 18.352L7.20726 18.928C6.59926 20.592 6.05526 22.256 5.57526 23.92C5.09526 25.584 4.77526 26.608 4.61526 26.992C4.26326 27.824 3.41526 28.24 2.07126 28.24C1.17526 28.24 0.727258 27.856 0.727258 27.088C0.727258 26.32 1.33526 25.2 2.55126 23.728C2.77526 23.44 3.51126 21.888 4.75926 19.072C4.31126 19.104 3.87926 19.12 3.46326 19.12C2.34326 19.12 1.78326 18.64 1.78326 17.68C1.78326 16.816 2.23126 16.384 3.12726 16.384C3.19126 16.384 4.10326 16.464 5.86326 16.624C6.34326 15.504 6.85526 14.4 7.39926 13.312C11.5913 4.544 14.4713 0.159998 16.0393 0.159998C17.2233 0.159998 18.0393 5.648 18.4873 16.624H18.9193C19.1433 16.624 19.2553 16.784 19.2553 17.104C19.2553 17.424 19.0153 17.696 18.5353 17.92C18.7273 23.168 18.9833 25.792 19.3033 25.792ZM7.92726 16.864C11.6713 16.864 14.0553 16.848 15.0793 16.816C15.0473 16.304 15.0153 15.408 14.9833 14.128C14.9513 12.848 14.9193 11.744 14.8873 10.816C14.8553 9.856 14.8233 8.864 14.7913 7.84C14.6633 5.632 14.4713 4.528 14.2153 4.528C13.8633 4.528 13.1433 5.568 12.0553 7.648C10.9673 9.728 10.1193 11.488 9.51126 12.928C8.67926 15.008 8.15126 16.32 7.92726 16.864ZM25.7821 23.824L26.0701 18.448C26.0701 15.024 26.2301 13.152 26.5501 12.832C26.8701 12.512 27.4301 12.048 28.2301 11.44C29.0621 10.8 29.6541 10.48 30.0061 10.48C30.3901 10.48 30.6301 10.544 30.7261 10.672C30.8221 10.8 30.8701 11.056 30.8701 11.44C30.8701 12.816 30.5661 14.208 29.9581 15.616C29.4781 18.56 29.2381 20.976 29.2381 22.864C29.2381 24.752 29.5421 25.696 30.1501 25.696C30.8861 25.696 31.7501 25.056 32.7421 23.776C33.7341 22.496 34.7261 20.592 35.7181 18.064C36.0061 14.864 36.2301 13.136 36.3901 12.88C36.5821 12.624 37.0301 12.16 37.7341 11.488C38.4381 10.816 39.0141 10.48 39.4621 10.48C39.9421 10.48 40.1821 11.088 40.1821 12.304C40.1821 12.624 40.0861 13.248 39.8941 14.176C39.7341 15.104 39.5421 15.776 39.3181 16.192C38.9661 17.088 38.7901 19.856 38.7901 24.496C38.7901 25.36 38.8861 25.792 39.0781 25.792C39.6221 25.76 40.3741 25.088 41.3341 23.776C42.2941 22.432 43.2381 20.72 44.1661 18.64C45.1261 16.56 45.7021 15.52 45.8941 15.52C46.1181 15.52 46.2301 15.648 46.2301 15.904C46.2301 16.8 45.7661 18.224 44.8381 20.176C42.3101 25.552 40.1821 28.24 38.4541 28.24C37.2061 28.24 36.2621 27.984 35.6221 27.472C35.3981 27.248 35.2861 26.56 35.2861 25.408C35.2861 24.256 35.3341 22.976 35.4301 21.568C34.4061 23.744 33.3821 25.408 32.3581 26.56C31.3341 27.68 30.1821 28.24 28.9021 28.24C27.6541 28.24 26.8221 27.904 26.4061 27.232C25.9901 26.56 25.7821 25.424 25.7821 23.824ZM48.9294 15.472L51.5694 15.184C51.8254 15.184 52.0494 15.328 52.2414 15.616C52.4334 15.904 52.5294 16.208 52.5294 16.528C52.5294 16.848 52.4174 17.936 52.1934 19.792C52.0014 21.648 51.9054 23.12 51.9054 24.208C51.9054 25.264 52.0014 25.792 52.1934 25.792C52.7374 25.76 53.4894 25.088 54.4494 23.776C55.4094 22.432 56.3534 20.72 57.2814 18.64C58.2414 16.56 58.8174 15.52 59.0094 15.52C59.2334 15.52 59.3454 15.648 59.3454 15.904C59.3454 16.8 58.8814 18.224 57.9534 20.176C55.4254 25.552 53.2974 28.24 51.5694 28.24C50.3214 28.24 49.3774 27.984 48.7374 27.472C48.5134 27.248 48.4014 25.856 48.4014 23.296C48.4014 20.736 48.6734 18.544 49.2174 16.72C47.3614 16.72 46.0654 16.128 45.3294 14.944C44.9454 14.336 44.7534 13.648 44.7534 12.88C44.7534 12.112 44.9134 11.44 45.2334 10.864C45.5534 10.288 46.0014 10 46.5774 10C47.1854 10 47.7294 10.32 48.2094 10.96C48.7214 11.568 48.9774 12.256 48.9774 13.024C48.9774 13.792 48.7534 14.56 48.3054 15.328C48.4334 15.424 48.6414 15.472 48.9294 15.472ZM73.4518 17.584C74.7318 17.168 75.6118 16.816 76.0918 16.528C76.6038 16.208 76.9878 15.968 77.2438 15.808L77.8198 15.472C77.9798 15.376 78.1078 15.328 78.2038 15.328C78.4598 15.328 78.5878 15.472 78.5878 15.76C78.5878 16.048 78.0918 16.56 77.0998 17.296C76.1078 18 74.8758 18.64 73.4038 19.216C73.1798 21.904 72.3318 24.08 70.8598 25.744C69.3878 27.408 67.2918 28.24 64.5718 28.24C62.5878 28.24 61.0678 27.456 60.0118 25.888C58.9558 24.288 58.4278 22.432 58.4278 20.32C58.4278 18.176 59.0518 16.16 60.2998 14.272C61.5798 12.384 63.2118 11.44 65.1958 11.44C66.0918 10.8 67.1478 10.48 68.3638 10.48C69.6118 10.48 70.7638 11.136 71.8198 12.448C72.8758 13.76 73.4198 15.472 73.4518 17.584ZM70.3318 20.032L68.6038 20.128C67.1318 20.128 65.8838 19.696 64.8598 18.832C63.8358 17.936 63.3238 16.96 63.3238 15.904C63.3238 14.848 63.4998 13.936 63.8518 13.168C62.4758 14.256 61.7878 16.4 61.7878 19.6C61.7878 21.136 62.1078 22.608 62.7478 24.016C63.3878 25.392 64.3958 26.08 65.7718 26.08C67.1478 26.08 68.2198 25.504 68.9878 24.352C69.7558 23.168 70.2038 21.728 70.3318 20.032ZM67.3558 12.064C66.8438 12.064 66.4438 12.304 66.1558 12.784C65.8678 13.232 65.7238 13.728 65.7238 14.272C65.7238 15.456 66.1238 16.416 66.9238 17.152C67.7558 17.888 68.7158 18.256 69.8038 18.256H70.3798C70.3158 16.688 70.0438 15.264 69.5638 13.984C69.1158 12.704 68.3798 12.064 67.3558 12.064ZM81.5281 15.472L84.1681 15.184C84.4241 15.184 84.6481 15.328 84.8401 15.616C85.0321 15.904 85.1281 16.208 85.1281 16.528C85.1281 16.848 85.0161 17.936 84.7921 19.792C84.6001 21.648 84.5041 23.12 84.5041 24.208C84.5041 25.264 84.6001 25.792 84.7921 25.792C85.3361 25.76 86.0881 25.088 87.0481 23.776C88.0081 22.432 88.9521 20.72 89.8801 18.64C90.8401 16.56 91.4161 15.52 91.6081 15.52C91.8321 15.52 91.9441 15.648 91.9441 15.904C91.9441 16.8 91.4801 18.224 90.5521 20.176C88.0241 25.552 85.8961 28.24 84.1681 28.24C82.9201 28.24 81.9761 27.984 81.3361 27.472C81.1121 27.248 81.0001 25.856 81.0001 23.296C81.0001 20.736 81.2721 18.544 81.8161 16.72C79.9601 16.72 78.6641 16.128 77.9281 14.944C77.5441 14.336 77.3521 13.648 77.3521 12.88C77.3521 12.112 77.5121 11.44 77.8321 10.864C78.1521 10.288 78.6001 10 79.1761 10C79.7841 10 80.3281 10.32 80.8081 10.96C81.3201 11.568 81.5761 12.256 81.5761 13.024C81.5761 13.792 81.3521 14.56 80.9041 15.328C81.0321 15.424 81.2401 15.472 81.5281 15.472ZM104.514 28.24C103.266 28.24 102.322 27.984 101.682 27.472C101.458 27.248 101.346 26.688 101.346 25.792C101.346 24.864 101.378 23.632 101.442 22.096C100.61 24.176 99.7785 25.728 98.9465 26.752C98.1465 27.744 97.1065 28.24 95.8265 28.24C94.5465 28.24 93.4265 27.648 92.4665 26.464C91.5065 25.248 91.0265 23.36 91.0265 20.8C91.0265 18.208 91.7465 15.92 93.1865 13.936C94.6585 11.952 96.5785 10.96 98.9465 10.96C99.9705 10.96 101.122 11.632 102.402 12.976C102.658 12.624 103.106 12.208 103.746 11.728C104.418 11.216 104.978 10.96 105.426 10.96C105.906 10.96 106.146 11.568 106.146 12.784C106.146 13.104 106.05 13.728 105.858 14.656C105.698 15.584 105.506 16.256 105.282 16.672C104.994 17.408 104.85 20.016 104.85 24.496C104.85 25.36 104.946 25.792 105.138 25.792C105.682 25.76 106.434 25.088 107.394 23.776C108.354 22.432 109.298 20.72 110.226 18.64C111.186 16.56 111.762 15.52 111.954 15.52C112.178 15.52 112.29 15.648 112.29 15.904C112.29 16.8 111.826 18.224 110.898 20.176C108.37 25.552 106.242 28.24 104.514 28.24ZM98.6585 12.88C97.7625 12.88 96.8025 13.552 95.7785 14.896C94.7865 16.208 94.2905 17.76 94.2905 19.552C94.2905 21.344 94.5465 22.816 95.0585 23.968C95.6025 25.12 96.3065 25.696 97.1705 25.696C98.2265 25.696 99.7785 23.056 101.826 17.776C101.858 17.52 101.89 17.088 101.922 16.48C101.986 15.84 102.034 15.36 102.066 15.04C101.778 14.528 101.266 14.048 100.53 13.6C99.8265 13.12 99.2025 12.88 98.6585 12.88Z" fill="black"/>
</svg>
